<svg width="5" height="9" viewBox="0 0 5 9" fill="none" xmlns="http://www.w3.org/2000/svg">
<path d="M5 4.22412C4.99561 3.99121 4.9165 3.80664 4.72754 3.62207L1.41846 0.387695C1.27783 0.251465 1.11523 0.181152 0.913086 0.181152C0.508789 0.181152 0.174805 0.510742 0.174805 0.910645C0.174805 1.11279 0.258301 1.29736 0.412109 1.45117L3.27734 4.21973L0.412109 6.99707C0.258301 7.14648 0.174805 7.33105 0.174805 7.5376C0.174805 7.9375 0.508789 8.26709 0.913086 8.26709C1.11084 8.26709 1.27783 8.20117 1.41846 8.06055L4.72754 4.82617C4.9165 4.6416 5 4.45264 5 4.22412Z" fill="#EBEBF5" fill-opacity="0.6"/>
</svg>
