<svg width="24" height="25" viewBox="0 0 24 25" fill="none" xmlns="http://www.w3.org/2000/svg">
<path fill-rule="evenodd" clip-rule="evenodd" d="M1.85491 4.18484C2.66207 2.73671 4.21735 1.75 6.00001 1.75H15C15.4142 1.75 15.75 2.08579 15.75 2.5V12.5C15.75 14.0142 14.5142 15.25 13 15.25H12C11.5858 15.25 11.25 14.9142 11.25 14.5C11.25 14.0858 11.5858 13.75 12 13.75H13C13.6858 13.75 14.25 13.1858 14.25 12.5V3.25H6.00001C4.78268 3.25 3.71798 3.92326 3.16513 4.91513C2.96347 5.27694 2.50669 5.40676 2.14488 5.2051C1.78307 5.00344 1.65325 4.54665 1.85491 4.18484Z" fill="#2F80ED"/>
<path fill-rule="evenodd" clip-rule="evenodd" d="M14.25 5.5C14.25 5.08579 14.5858 4.75 15 4.75H16.84C17.8339 4.75 18.7377 5.288 19.2286 6.13341L19.2311 6.13767L19.2311 6.13768L20.941 9.12767C21.0738 9.35979 21.0729 9.64503 20.9387 9.87633C20.8046 10.1076 20.5574 10.25 20.29 10.25H19C18.8642 10.25 18.75 10.3642 18.75 10.5V13.5C18.75 13.6358 18.8642 13.75 19 13.75H22C22.4142 13.75 22.75 14.0858 22.75 14.5V17.5C22.75 19.5742 21.0742 21.25 19 21.25H18C17.5858 21.25 17.25 20.9142 17.25 20.5C17.25 19.8142 16.6858 19.25 16 19.25C15.3142 19.25 14.75 19.8142 14.75 20.5C14.75 20.9142 14.4142 21.25 14 21.25H10C9.58579 21.25 9.25 20.9142 9.25 20.5C9.25 19.8142 8.68579 19.25 8 19.25C7.31421 19.25 6.75 19.8142 6.75 20.5C6.75 20.9142 6.41421 21.25 6 21.25H5C2.92579 21.25 1.25 19.5742 1.25 17.5C1.25 17.0858 1.58579 16.75 2 16.75C2.41421 16.75 2.75 17.0858 2.75 17.5C2.75 18.7458 3.75421 19.75 5 19.75H5.35431C5.68227 18.5981 6.74559 17.75 8 17.75C9.25441 17.75 10.3177 18.5981 10.6457 19.75H13.3543C13.6823 18.5981 14.7456 17.75 16 17.75C17.2544 17.75 18.3177 18.5981 18.6457 19.75H19C20.2458 19.75 21.25 18.7458 21.25 17.5V15.25H19C18.0358 15.25 17.25 14.4642 17.25 13.5V10.5C17.25 9.53676 18.0342 8.75159 18.9971 8.75L17.9314 6.88661C17.9311 6.88599 17.9307 6.88537 17.9303 6.88475C17.701 6.49126 17.2855 6.25 16.84 6.25H15.75V12.5C15.75 14.0142 14.5142 15.25 13 15.25H12C11.5858 15.25 11.25 14.9142 11.25 14.5C11.25 14.0858 11.5858 13.75 12 13.75H13C13.6858 13.75 14.25 13.1858 14.25 12.5V5.5Z" fill="#2F80ED"/>
<path fill-rule="evenodd" clip-rule="evenodd" d="M8 19.25C7.30964 19.25 6.75 19.8096 6.75 20.5C6.75 21.1904 7.30964 21.75 8 21.75C8.69036 21.75 9.25 21.1904 9.25 20.5C9.25 19.8096 8.69036 19.25 8 19.25ZM5.25 20.5C5.25 18.9812 6.48122 17.75 8 17.75C9.51878 17.75 10.75 18.9812 10.75 20.5C10.75 22.0188 9.51878 23.25 8 23.25C6.48122 23.25 5.25 22.0188 5.25 20.5Z" fill="#2F80ED"/>
<path fill-rule="evenodd" clip-rule="evenodd" d="M16 19.25C15.3096 19.25 14.75 19.8096 14.75 20.5C14.75 21.1904 15.3096 21.75 16 21.75C16.6904 21.75 17.25 21.1904 17.25 20.5C17.25 19.8096 16.6904 19.25 16 19.25ZM13.25 20.5C13.25 18.9812 14.4812 17.75 16 17.75C17.5188 17.75 18.75 18.9812 18.75 20.5C18.75 22.0188 17.5188 23.25 16 23.25C14.4812 23.25 13.25 22.0188 13.25 20.5Z" fill="#2F80ED"/>
<path fill-rule="evenodd" clip-rule="evenodd" d="M19 10.25C18.8642 10.25 18.75 10.3642 18.75 10.5V13.5C18.75 13.6358 18.8642 13.75 19 13.75H21.25V12.6987L19.8542 10.25H19ZM17.25 10.5C17.25 9.53579 18.0358 8.75 19 8.75H20.29C20.5594 8.75 20.8081 8.89452 20.9416 9.12859L22.6516 12.1286C22.7161 12.2418 22.75 12.3698 22.75 12.5V14.5C22.75 14.9142 22.4142 15.25 22 15.25H19C18.0358 15.25 17.25 14.4642 17.25 13.5V10.5Z" fill="#2F80ED"/>
<path fill-rule="evenodd" clip-rule="evenodd" d="M1.25 8.5C1.25 8.08579 1.58579 7.75 2 7.75H8C8.41421 7.75 8.75 8.08579 8.75 8.5C8.75 8.91421 8.41421 9.25 8 9.25H2C1.58579 9.25 1.25 8.91421 1.25 8.5Z" fill="#2F80ED"/>
<path fill-rule="evenodd" clip-rule="evenodd" d="M1.25 11.5C1.25 11.0858 1.58579 10.75 2 10.75H6C6.41421 10.75 6.75 11.0858 6.75 11.5C6.75 11.9142 6.41421 12.25 6 12.25H2C1.58579 12.25 1.25 11.9142 1.25 11.5Z" fill="#2F80ED"/>
<path fill-rule="evenodd" clip-rule="evenodd" d="M1.25 14.5C1.25 14.0858 1.58579 13.75 2 13.75H4C4.41421 13.75 4.75 14.0858 4.75 14.5C4.75 14.9142 4.41421 15.25 4 15.25H2C1.58579 15.25 1.25 14.9142 1.25 14.5Z" fill="#2F80ED"/>
</svg>
