<svg width="15" height="15" viewBox="0 0 15 15" fill="none" xmlns="http://www.w3.org/2000/svg">
<path opacity="0.5" d="M13.4883 8.6795C14.3086 8.6795 14.7188 9.08965 14.7188 9.90996V13.2459C14.7188 14.0662 14.3086 14.4764 13.4883 14.4764H10.3164C9.49609 14.4764 9.08594 14.0662 9.08594 13.2459V9.90996C9.08594 7.9959 9.28646 6.32793 9.6875 4.90606C10.1068 3.46595 10.918 2.20814 12.1211 1.13262C12.5221 0.786266 12.8594 0.740693 13.1328 0.995901L14.3633 2.14434C14.6367 2.39955 14.5729 2.70944 14.1719 3.07403C13.5521 3.6209 13.0417 4.41387 12.6406 5.45293C12.2578 6.47377 12.0664 7.54929 12.0664 8.6795H13.4883ZM4.46484 8.6795C5.28516 8.6795 5.69531 9.08965 5.69531 9.90996V13.2459C5.69531 14.0662 5.28516 14.4764 4.46484 14.4764H1.29297C0.472656 14.4764 0.0625 14.0662 0.0625 13.2459V9.90996C0.0625 7.9959 0.263021 6.32793 0.664062 4.90606C1.08333 3.46595 1.89453 2.20814 3.09766 1.13262C3.4987 0.786266 3.83594 0.740693 4.10938 0.995901L5.33984 2.14434C5.61328 2.39955 5.54948 2.70944 5.14844 3.07403C4.52865 3.6209 4.01823 4.41387 3.61719 5.45293C3.23438 6.47377 3.04297 7.54929 3.04297 8.6795H4.46484Z" fill="#102149"/>
</svg>
