<svg width="33" height="35" viewBox="0 0 33 35" fill="none" xmlns="http://www.w3.org/2000/svg">
<path d="M9.0216 28.847L9.51167 29.1528C11.5709 30.4391 13.9318 31.1194 16.3393 31.1208H16.3445C23.738 31.1208 29.7555 24.788 29.7587 17.0047C29.7598 13.2327 28.3661 9.68599 25.8333 7.01799C23.3004 4.35006 19.9328 2.87986 16.3495 2.87832C8.95017 2.87832 2.93279 9.21021 2.92985 16.9932C2.92884 19.6603 3.63775 22.2578 4.98065 24.5054L5.29994 25.0394L3.94442 30.2482L9.0216 28.847ZM0.069458 34.2831L2.35915 25.4827C0.946905 22.9072 0.203872 19.9854 0.204956 16.9921C0.208515 7.62809 7.44825 0.00976562 16.3445 0.00976562C20.6616 0.0117206 24.7137 1.78045 27.7611 4.99039C30.808 8.20056 32.4853 12.4676 32.4838 17.0059C32.4801 26.3694 25.2393 33.9891 16.3445 33.9891C16.3439 33.9891 16.3449 33.9891 16.3445 33.9891H16.3376C13.6366 33.9879 10.9825 33.2749 8.62524 31.9217L0.069458 34.2831Z" fill="white"/>
<path d="M0.750673 16.9786C0.750673 19.8903 1.47362 22.7027 2.85666 25.1842L0.624943 33.6875L8.8917 31.4045C11.1548 32.728 13.7323 33.3897 16.3412 33.3897C24.9223 33.3897 31.9318 26.0444 31.9318 17.0117C31.9318 12.6111 30.2973 8.50837 27.374 5.3982C24.4194 2.32112 20.5217 0.600605 16.3412 0.600605C7.76013 0.600605 0.750673 7.9459 0.750673 16.9786Z" fill="url(#paint0_linear_1103_1170)"/>
<path d="M0.19381 16.9654C0.19381 19.9814 0.942684 22.8947 2.37531 25.4652L0.0635681 34.2734L8.62677 31.9086C10.9711 33.2795 13.641 33.965 16.3434 33.965C25.2322 33.965 32.493 26.3563 32.493 16.9997C32.493 12.4413 30.7999 8.19139 27.7719 4.96969C24.7113 1.78227 20.6739 5.34058e-05 16.3434 5.34058e-05C7.45462 5.34058e-05 0.19381 7.60874 0.19381 16.9654ZM5.30568 25.0196L4.98009 24.5055C3.64514 22.2435 2.92882 19.6387 2.92882 16.9997C2.92882 9.18532 8.95237 2.87902 16.3434 2.87902C19.925 2.87902 23.3112 4.35277 25.8183 6.99182C28.358 9.66515 29.758 13.2296 29.758 16.9997C29.758 24.7797 23.7345 31.1203 16.3434 31.1203C13.934 31.1203 11.5571 30.4348 9.50589 29.1324L9.01749 28.824L3.93818 30.2292L5.30568 25.0196Z" fill="url(#paint1_linear_1103_1170)"/>
<path fill-rule="evenodd" clip-rule="evenodd" d="M12.3108 9.89853C12.0087 9.19165 11.6908 9.17748 11.4034 9.1651C11.1684 9.15451 10.8992 9.15516 10.6305 9.15516C10.3617 9.15516 9.92473 9.26146 9.5553 9.68625C9.18556 10.111 8.14368 11.1379 8.14368 13.2263C8.14368 15.315 9.58888 17.3331 9.79031 17.6166C9.99197 17.8996 12.5801 22.3223 16.679 24.0239C20.0856 25.4379 20.7788 25.1566 21.5182 25.0859C22.2576 25.0151 23.9041 24.0592 24.2401 23.068C24.5762 22.0769 24.5762 21.2274 24.4754 21.0498C24.3746 20.8729 24.1057 20.7668 23.7024 20.5545C23.2991 20.3422 21.3165 19.3152 20.9468 19.1737C20.5771 19.0322 20.3082 18.9614 20.0394 19.3863C19.7705 19.8109 18.9981 20.7668 18.7628 21.0498C18.5276 21.3335 18.2923 21.3689 17.889 21.1566C17.4857 20.9437 16.1869 20.4959 14.6461 19.0499C13.4473 17.9248 12.6379 16.5353 12.4026 16.1104C12.1674 15.6858 12.3775 15.4559 12.5797 15.2442C12.7608 15.054 12.9831 14.7487 13.1847 14.5009C13.3859 14.253 13.4532 14.0761 13.5876 13.793C13.722 13.5095 13.6548 13.2617 13.554 13.0494C13.4532 12.8371 12.6694 10.7378 12.3108 9.89853Z" fill="white"/>
<defs>
<linearGradient id="paint0_linear_1103_1170" x1="16.2766" y1="33.6875" x2="16.2766" y2="0.600605" gradientUnits="userSpaceOnUse">
<stop stop-color="#20B038"/>
<stop offset="1" stop-color="#60D66A"/>
</linearGradient>
<linearGradient id="paint1_linear_1103_1170" x1="16.2769" y1="34.2734" x2="16.2769" y2="5.34058e-05" gradientUnits="userSpaceOnUse">
<stop stop-color="#F9F9F9"/>
<stop offset="1" stop-color="white"/>
</linearGradient>
</defs>
</svg>
