<svg width="13" height="13" viewBox="0 0 13 13" fill="none" xmlns="http://www.w3.org/2000/svg">
<path fill-rule="evenodd" clip-rule="evenodd" d="M11.924 3.34038C11.786 2.82417 11.3794 2.4175 10.8631 2.27951C9.92732 2.02881 6.17476 2.02881 6.17476 2.02881C6.17476 2.02881 2.42229 2.02881 1.48647 2.27951C0.970162 2.4175 0.563593 2.82417 0.425601 3.34038C0.174805 4.2763 0.174805 6.22873 0.174805 6.22873C0.174805 6.22873 0.174805 8.18127 0.425601 9.11709C0.563593 9.6333 0.970162 10.0401 1.48647 10.178C2.42229 10.4288 6.17476 10.4288 6.17476 10.4288C6.17476 10.4288 9.92732 10.4288 10.8631 10.178C11.3794 10.0401 11.786 9.6333 11.924 9.11709C12.1748 8.18127 12.1748 6.22873 12.1748 6.22873C12.1748 6.22873 12.1748 4.2763 11.924 3.34038Z" fill="#FF0000"/>
<path fill-rule="evenodd" clip-rule="evenodd" d="M4.97485 8.02876L8.09237 6.22883L4.97485 4.42871V8.02876Z" fill="white"/>
</svg>
