<svg width="492" height="350" viewBox="0 0 492 350" fill="none" xmlns="http://www.w3.org/2000/svg">
<path d="M52.039 300.538L51.6352 299.792L51.2161 300.019L51.1916 300.494L52.039 300.538ZM52.039 300.538L51.1916 300.495L51.1916 300.495L51.1916 300.496L51.1913 300.5L51.1904 300.518L51.1866 300.589C51.1833 300.652 51.1782 300.744 51.1716 300.862C51.1583 301.098 51.1386 301.437 51.1128 301.851C51.0612 302.677 50.9855 303.797 50.889 304.971C50.7923 306.147 50.6753 307.37 50.5417 308.405C50.4036 309.475 50.2588 310.246 50.131 310.586L50.1278 310.594L50.1248 310.603C49.8003 311.523 48.5815 315.735 47.4569 319.667C46.8915 321.644 46.3457 323.565 45.9413 324.992C45.7606 325.63 45.6081 326.169 45.4946 326.571L41.6306 325.659L41.2404 325.567L40.9216 325.81L38.3365 327.78L35.2039 326.396L30.5301 308.512L30.3215 307.714L29.5177 307.9L26.428 308.615L22.6977 302.029C22.7288 302.009 22.76 301.988 22.7911 301.968C27.209 299.043 31.8062 295.999 35.5698 293.247C37.5591 291.792 39.3308 290.408 40.728 289.155C41.7701 288.221 42.6476 287.323 43.2459 286.494L57.1639 295.18C57.1613 295.2 57.1585 295.22 57.1556 295.24C57.1062 295.587 57.0217 296.047 56.8825 296.512C56.7413 296.984 56.5559 297.42 56.3238 297.749C56.0946 298.074 55.8606 298.238 55.6227 298.293C54.5486 298.542 53.5548 298.916 52.8359 299.224C52.4746 299.379 52.1784 299.519 51.9709 299.621C51.8671 299.672 51.7853 299.713 51.7284 299.743C51.6999 299.758 51.6777 299.769 51.662 299.778L51.6435 299.787L51.6381 299.79L51.6363 299.791L51.6357 299.792L51.6354 299.792C51.6353 299.792 51.6352 299.792 52.039 300.538Z" fill="#1B2846" stroke="#586179" stroke-width="1.69697"/>
<path d="M58.3406 293.954L84.2701 287.949C84.3689 287.799 84.5036 287.596 84.6683 287.355C85.0355 286.818 85.5543 286.084 86.1597 285.303C86.7638 284.523 87.4618 283.685 88.1877 282.944C88.9052 282.21 89.6887 281.531 90.4669 281.106L90.4721 281.103C90.6447 281.011 90.893 280.795 91.2018 280.4C91.5014 280.018 91.8171 279.52 92.1398 278.934C92.7851 277.764 93.4207 276.31 93.9849 274.875C94.5474 273.445 95.0309 272.055 95.3742 271.022C95.5457 270.505 95.6818 270.079 95.7748 269.782C95.7981 269.708 95.8187 269.642 95.8365 269.584C95.8542 269.527 95.8691 269.479 95.8811 269.439L95.9081 269.351L95.9148 269.328L95.9164 269.323L95.9168 269.322L95.9168 269.322L96.0536 268.865L96.5148 268.744L113.643 264.261L111.038 257.367L110.814 256.773L111.32 256.39L131.056 241.483L131.088 241.459L131.122 241.438L131.184 241.537C131.123 241.437 131.123 241.437 131.123 241.437L131.123 241.437L131.124 241.436L131.128 241.434L131.14 241.427L131.186 241.399C131.226 241.375 131.284 241.34 131.358 241.296C131.506 241.209 131.72 241.085 131.985 240.937C132.515 240.642 133.254 240.249 134.092 239.858C134.927 239.468 135.872 239.074 136.813 238.783C137.742 238.495 138.72 238.291 139.604 238.32C140.638 238.354 141.41 238.848 141.951 239.51C142.472 240.148 142.784 240.943 142.977 241.663C143.173 242.392 143.264 243.107 143.307 243.633C143.329 243.897 143.339 244.118 143.343 244.275C143.345 244.354 143.346 244.416 143.346 244.46L143.346 244.513L143.346 244.528L143.346 244.533L143.346 244.534L143.346 244.535C143.346 244.535 143.346 244.536 142.498 244.525M58.3406 293.954L288.111 85.7302M58.3406 293.954L44.0243 285.019C44.1025 284.776 44.1442 284.517 44.1261 284.238C44.1302 283.114 44.3204 281.989 44.5594 280.834C44.6186 280.548 44.6815 280.257 44.745 279.964C44.9342 279.09 45.1287 278.191 45.2456 277.32C45.4042 276.141 45.4358 274.925 45.1185 273.718C44.7974 272.498 44.1331 271.338 42.9814 270.254C42.8417 270.122 42.7026 269.992 42.5645 269.863C41.65 269.006 40.7807 268.191 40.0755 267.346C39.2662 266.376 38.7573 265.461 38.646 264.534C38.5388 263.642 38.7848 262.6 39.7779 261.328C40.786 260.036 42.536 258.546 45.3539 256.82L45.3556 256.819C48.0218 255.178 50.3542 253.887 52.4007 252.753L52.8145 252.524C54.9481 251.342 56.7892 250.31 58.3313 249.22C59.8839 248.124 61.1639 246.95 62.1735 245.464C63.1837 243.976 63.8945 242.219 64.367 239.991L64.3791 239.934L64.3833 239.876L64.3833 239.876L64.3835 239.873L64.3841 239.864L64.3869 239.828L64.3978 239.682C64.4075 239.555 64.4221 239.366 64.4416 239.124C64.4805 238.639 64.5389 237.939 64.6164 237.081C64.7716 235.363 65.0032 233.014 65.3096 230.484C65.6161 227.953 65.9964 225.248 66.4479 222.819C66.9023 220.374 67.4192 218.262 67.9848 216.886L67.9887 216.876C68.5658 215.42 69.0431 214.261 69.4766 213.352C69.9139 212.434 70.2819 211.824 70.6246 211.432C70.9517 211.058 71.2204 210.922 71.4768 210.879C71.7617 210.83 72.158 210.875 72.7729 211.104C73.3475 211.317 73.996 211.696 74.6553 212.081L74.7151 212.116C75.039 212.305 75.3708 212.498 75.6679 212.645C75.9356 212.778 76.2956 212.939 76.6466 212.964C76.837 212.978 77.1224 212.959 77.3907 212.776C77.6774 212.581 77.8052 212.295 77.8505 212.051C77.9267 211.642 77.8052 211.177 77.6617 210.76C77.3495 209.855 76.6439 208.42 75.4387 206.254L75.4373 206.252C74.5338 204.641 73.486 203.091 72.4765 201.597C72.0997 201.04 71.7283 200.49 71.3717 199.948C70.0392 197.924 68.8885 195.972 68.2389 193.925C67.5964 191.899 67.4427 189.773 68.1287 187.386C68.8195 184.982 70.3779 182.259 73.2555 179.082L73.2567 179.08C75.9833 176.056 78.978 172.844 81.9664 169.637L82.6182 168.938C85.8188 165.504 88.9893 162.094 91.7775 158.962C94.5625 155.835 96.9841 152.966 98.6796 150.615C99.5262 149.442 100.209 148.374 100.665 147.453C101.102 146.572 101.41 145.675 101.307 144.902C101.192 144.03 101.299 143.041 101.447 141.713C101.591 140.415 101.76 138.87 101.702 137.027C101.585 133.317 100.55 128.49 96.7237 121.839C93.0033 115.367 87.8275 105.768 84.5198 97.6359C82.8606 93.5567 81.701 89.9163 81.4021 87.2473C81.2518 85.9054 81.3318 84.9085 81.5947 84.2452C81.8331 83.6441 82.2162 83.312 82.8434 83.1998C84.4095 82.9197 86.2192 83.4934 88.1928 84.7675C90.1516 86.032 92.1552 87.912 94.0581 90.0267C97.8607 94.2524 101.144 99.2818 102.738 101.798L102.74 101.802C103.353 102.759 104.035 104.138 104.84 105.766C105.034 106.16 105.236 106.568 105.446 106.988C106.506 109.112 107.745 111.491 109.211 113.637C112.105 117.876 116.139 121.554 121.711 120.044C125.624 118.983 131.814 118.212 138.263 117.41C139.973 117.197 141.7 116.982 143.409 116.758C147.457 116.229 151.383 115.654 154.631 114.952C156.255 114.6 157.727 114.214 158.969 113.78C160.198 113.35 161.257 112.854 162.018 112.262C163.393 111.197 164.286 110.158 165.056 109.217C165.141 109.113 165.224 109.011 165.305 108.911C165.97 108.094 166.537 107.397 167.308 106.759C168.992 105.365 171.772 104.171 178.746 103.562C192.86 102.385 209.293 97.3782 217.505 82.0327C220.977 75.5459 221.432 70.8016 220.84 67.169C220.546 65.367 220.001 63.8732 219.486 62.6238C219.346 62.2848 219.213 61.9722 219.088 61.6809C218.925 61.2984 218.778 60.9524 218.651 60.6309L230.99 60.4191L260.149 88.331L260.48 88.6481L260.927 88.5446L268.2 86.8602L268.693 86.7461L268.827 86.2586L58.3406 293.954ZM142.498 244.525L143.252 244.913L143.252 244.914L143.251 244.915L143.25 244.918L143.243 244.93L143.219 244.977L143.126 245.158C143.045 245.314 142.928 245.539 142.784 245.815C142.496 246.368 142.099 247.124 141.665 247.941C140.804 249.563 139.776 251.458 139.162 252.441C139.113 252.519 139.036 252.728 138.987 253.134C138.941 253.519 138.93 254.002 138.949 254.561C138.988 255.679 139.148 257.017 139.349 258.319C139.549 259.618 139.786 260.86 139.974 261.779C140.067 262.238 140.148 262.616 140.206 262.878C140.235 263.009 140.258 263.111 140.273 263.18L140.281 263.213L146.751 278.45L156.072 282.365L156.239 282.435L156.362 282.566L160.827 287.316L165.14 288.083L165.229 288.099L165.314 288.134L200.095 302.431L206.873 296.98L206.978 296.896L207.105 296.848L210.833 295.44L211.007 295.375L211.192 295.388L220.789 296.06L223.799 292.826L224.326 292.26L224.938 292.732L228.889 295.78L230.862 293.128L231.38 292.431L232.064 292.964L237.717 297.367L250.509 294.404L251.14 294.258L251.448 294.828L254.989 301.401L256.465 298.299L256.64 297.931L257.036 297.838L477.444 245.955L476.753 236.214L476.686 235.263L477.639 235.307L487.203 235.749C484.034 231.411 481.964 226.538 480.309 222.642C479.846 221.552 479.415 220.539 479.003 219.636C478.547 218.651 478.143 217.067 477.752 215.09C477.356 213.088 476.958 210.602 476.538 207.767C476.254 205.854 475.96 203.781 475.648 201.583C475.032 197.249 474.348 192.43 473.541 187.394C471.103 172.195 467.574 155.266 461.583 144.355L461.582 144.353C449.547 122.285 427.132 102.612 422.548 98.79C421.505 97.9206 419.776 97.0348 417.531 96.0993C415.342 95.1868 412.747 94.2604 409.974 93.2703L409.832 93.2195C404.214 91.2134 397.887 88.9473 393.095 86.079L393.088 86.0749L393.081 86.0707L393.072 86.065C392.424 85.6604 391.704 85.2114 390.907 84.6055L373.876 90.7674L373.658 90.8462L373.431 90.8034L345.032 85.4684L318.249 89.0276L320.04 92.895L320.494 93.8765L319.433 94.0842L304.298 97.0454L303.912 97.1209L303.605 96.8756L298.425 92.7362C298.367 92.7127 298.288 92.6808 298.191 92.641C297.967 92.5487 297.645 92.4138 297.249 92.242C296.459 91.8988 295.373 91.4073 294.194 90.8142C291.875 89.6473 289.059 88.0229 287.486 86.305M142.498 244.525L143.346 244.536L143.343 244.736L143.252 244.913L142.498 244.525ZM287.486 86.305C287.486 86.3043 287.485 86.3037 287.485 86.303L288.111 85.7302M287.486 86.305C287.487 86.3055 287.487 86.306 287.488 86.3065L288.111 85.7302M287.486 86.305C286.038 84.7399 283.006 81.5519 279.976 79.1786C278.453 77.9851 276.989 77.0454 275.766 76.5989C274.519 76.1438 273.828 76.2932 273.428 76.7363M288.111 85.7302C285.209 82.5942 275.821 72.8002 272.795 76.1716M273.428 76.7363C273.429 76.7352 273.43 76.734 273.431 76.7329L272.795 76.1716M273.428 76.7363C272.021 78.3336 270.868 80.6867 270.058 82.701C269.657 83.6982 269.348 84.5915 269.14 85.235C269.036 85.5564 268.957 85.8148 268.904 85.9916C268.878 86.08 268.858 86.148 268.845 86.1932L268.831 86.2437L268.828 86.2557L268.827 86.2582L268.827 86.2584M273.428 76.7363C273.428 76.737 273.427 76.7377 273.426 76.7384L272.795 76.1716M272.795 76.1716L268.827 86.2584M268.827 86.2584L268.673 86.2162L268.827 86.2584ZM319.27 93.2515L318.5 93.608L318.413 93.4192L319.27 93.2515ZM319.27 93.2515L319.107 92.4188L318.903 92.4587L319.27 93.2515ZM317.368 89.1446L316.995 88.3383L317.876 88.2212L317.368 89.1446Z" fill="#1B2846" stroke="#586179" stroke-width="1.69697"/>
</svg>
