<svg  width="509" height="282" viewBox="0 0 509 282" fill="none" xmlns="http://www.w3.org/2000/svg">
<mask id="path-1-inside-1_1103_125" fill="white">
<path d="M303.864 253.999L275.546 274.681L275.178 281.231L266.204 272.62L250.832 273.135L251.641 259.666L247.669 253.999L243.182 241.045L239.063 241.413L230.09 228.754L192.798 230.815C192.798 230.815 169.702 206.085 151.02 196.296L117.7 206.894L117.038 270.633H110.051C110.051 270.633 98.6498 253.557 94.6779 252.306C91.7358 251.423 82.468 257.017 77.7606 260.108C74.9656 257.605 75.9218 249.068 75.6276 247.08C75.2598 244.284 65.4772 237.365 61.7995 236.188C58.1954 234.936 53.7087 219.554 51.2815 216.242C48.8542 213.003 49.5898 209.397 54.8856 210.943C60.1079 212.635 57.8277 201.227 62.6822 200.418C67.5368 199.534 72.8326 200.05 78.0549 196.738C79.8937 195.634 83.2772 189.01 82.9094 184.962C82.5417 180.987 77.2458 175.246 77.2458 175.246C59.0045 170.389 45.6914 176.792 36.4236 184.005L22.3749 175.246L30.8336 174.069L18.7709 156.404H7.14944L7.73788 145.364L0.456055 144.187L5.89904 130.718L5.3106 115.482L13.9163 105.767C13.9163 105.767 24.2138 116.071 27.2295 116.66C30.2452 117.323 25.9791 102.014 25.9791 102.014L35.6882 98.996L36.3501 92.9607L53.4144 80.743L60.0343 81.3318C60.0343 81.3318 60.0343 86.7782 62.5351 85.6006C64.8888 84.3494 72.8325 79.4918 72.8325 79.4918L75.8482 84.3494H85.5573L93.4275 92.2248L100.121 103.854L101.96 94.1383L116.008 105.178C116.008 105.178 117.774 102.087 120.863 98.4807C123.879 94.8743 130.572 92.3719 130.572 92.3719L137.192 97.8919L140.281 92.3719C140.281 92.3719 147.489 91.1943 148.74 93.6231C149.99 96.0519 162.788 103.927 162.788 103.927L166.981 97.2295C166.981 97.2295 174.998 101.498 182.868 101.498C190.739 101.498 186.473 89.2807 182.28 85.159C178.087 81.0374 170.659 79.0502 170.659 79.0502C170.659 79.0502 167.643 74.7814 173.086 71.175C178.529 67.4949 179.779 66.3172 179.191 63.1524C178.529 60.1348 180.368 52.8484 180.368 52.8484L195.005 54.0996L182.795 47.9907L185.81 43.7218L177.94 40.1155L182.795 31.6513L190.665 33.4178L198.682 34.0066L215.011 27.3825L233.914 24.2913L235.091 17.0784L269.882 11.5584L272.898 7.3631L278.929 0.665527C278.929 0.665527 284.446 6.11189 291.213 7.3631C297.832 8.54071 300.26 5.52308 302.687 5.52308C305.114 5.52308 303.275 12.2208 305.114 13.3984C306.953 14.576 305.776 24.2913 306.365 29.885C306.953 35.3314 317.839 26.8673 317.839 26.8673L324.532 33.4914L342.185 32.3137C342.185 32.3137 339.169 35.9202 336.154 37.1714C333.138 38.349 336.154 45.0467 336.154 45.0467L345.863 39.6002C345.863 39.6002 356.749 34.0802 371.386 26.1313C386.023 18.256 378.079 26.7937 375.652 28.5601C373.224 30.4001 375.063 35.2578 375.063 35.2578C375.063 35.2578 392.128 51.1555 393.967 52.9219C395.732 54.7619 417.062 99.2168 417.062 99.2168C417.062 99.2168 424.933 90.1639 426.771 86.9991C428.61 83.9814 432.876 96.1256 432.876 96.1256L437.731 98.5543L446.851 99.1431C446.851 99.1431 449.867 96.1256 458.326 95.5368C466.932 94.948 468.623 105.841 468.623 105.841L477.229 111.876C477.229 111.876 480.245 118.574 486.938 122.916C493.631 127.185 500.987 116.807 500.987 116.807C500.987 116.807 500.398 120.487 500.398 122.327C500.398 123.505 504.664 125.934 508.416 127.627L500.398 132.116L500.987 139.403L486.35 147.278C486.35 147.278 486.938 149.707 486.35 161.336C485.761 172.965 476.641 172.965 476.641 172.965L455.898 164.942L446.189 191.733L448.617 202.773L438.319 200.933L418.239 206.379L427.36 235.599L419.931 241.708V253.925L408.457 244.799L354.91 243.548L346.892 235.084L335.418 238.101L336.595 251.57L309.233 244.872L306.806 251.791L303.496 254.22L303.864 253.999Z"/>
</mask>
<path d="M303.864 253.999L275.546 274.681L275.178 281.231L266.204 272.62L250.832 273.135L251.641 259.666L247.669 253.999L243.182 241.045L239.063 241.413L230.09 228.754L192.798 230.815C192.798 230.815 169.702 206.085 151.02 196.296L117.7 206.894L117.038 270.633H110.051C110.051 270.633 98.6498 253.557 94.6779 252.306C91.7358 251.423 82.468 257.017 77.7606 260.108C74.9656 257.605 75.9218 249.068 75.6276 247.08C75.2598 244.284 65.4772 237.365 61.7995 236.188C58.1954 234.936 53.7087 219.554 51.2815 216.242C48.8542 213.003 49.5898 209.397 54.8856 210.943C60.1079 212.635 57.8277 201.227 62.6822 200.418C67.5368 199.534 72.8326 200.05 78.0549 196.738C79.8937 195.634 83.2772 189.01 82.9094 184.962C82.5417 180.987 77.2458 175.246 77.2458 175.246C59.0045 170.389 45.6914 176.792 36.4236 184.005L22.3749 175.246L30.8336 174.069L18.7709 156.404H7.14944L7.73788 145.364L0.456055 144.187L5.89904 130.718L5.3106 115.482L13.9163 105.767C13.9163 105.767 24.2138 116.071 27.2295 116.66C30.2452 117.323 25.9791 102.014 25.9791 102.014L35.6882 98.996L36.3501 92.9607L53.4144 80.743L60.0343 81.3318C60.0343 81.3318 60.0343 86.7782 62.5351 85.6006C64.8888 84.3494 72.8325 79.4918 72.8325 79.4918L75.8482 84.3494H85.5573L93.4275 92.2248L100.121 103.854L101.96 94.1383L116.008 105.178C116.008 105.178 117.774 102.087 120.863 98.4807C123.879 94.8743 130.572 92.3719 130.572 92.3719L137.192 97.8919L140.281 92.3719C140.281 92.3719 147.489 91.1943 148.74 93.6231C149.99 96.0519 162.788 103.927 162.788 103.927L166.981 97.2295C166.981 97.2295 174.998 101.498 182.868 101.498C190.739 101.498 186.473 89.2807 182.28 85.159C178.087 81.0374 170.659 79.0502 170.659 79.0502C170.659 79.0502 167.643 74.7814 173.086 71.175C178.529 67.4949 179.779 66.3172 179.191 63.1524C178.529 60.1348 180.368 52.8484 180.368 52.8484L195.005 54.0996L182.795 47.9907L185.81 43.7218L177.94 40.1155L182.795 31.6513L190.665 33.4178L198.682 34.0066L215.011 27.3825L233.914 24.2913L235.091 17.0784L269.882 11.5584L272.898 7.3631L278.929 0.665527C278.929 0.665527 284.446 6.11189 291.213 7.3631C297.832 8.54071 300.26 5.52308 302.687 5.52308C305.114 5.52308 303.275 12.2208 305.114 13.3984C306.953 14.576 305.776 24.2913 306.365 29.885C306.953 35.3314 317.839 26.8673 317.839 26.8673L324.532 33.4914L342.185 32.3137C342.185 32.3137 339.169 35.9202 336.154 37.1714C333.138 38.349 336.154 45.0467 336.154 45.0467L345.863 39.6002C345.863 39.6002 356.749 34.0802 371.386 26.1313C386.023 18.256 378.079 26.7937 375.652 28.5601C373.224 30.4001 375.063 35.2578 375.063 35.2578C375.063 35.2578 392.128 51.1555 393.967 52.9219C395.732 54.7619 417.062 99.2168 417.062 99.2168C417.062 99.2168 424.933 90.1639 426.771 86.9991C428.61 83.9814 432.876 96.1256 432.876 96.1256L437.731 98.5543L446.851 99.1431C446.851 99.1431 449.867 96.1256 458.326 95.5368C466.932 94.948 468.623 105.841 468.623 105.841L477.229 111.876C477.229 111.876 480.245 118.574 486.938 122.916C493.631 127.185 500.987 116.807 500.987 116.807C500.987 116.807 500.398 120.487 500.398 122.327C500.398 123.505 504.664 125.934 508.416 127.627L500.398 132.116L500.987 139.403L486.35 147.278C486.35 147.278 486.938 149.707 486.35 161.336C485.761 172.965 476.641 172.965 476.641 172.965L455.898 164.942L446.189 191.733L448.617 202.773L438.319 200.933L418.239 206.379L427.36 235.599L419.931 241.708V253.925L408.457 244.799L354.91 243.548L346.892 235.084L335.418 238.101L336.595 251.57L309.233 244.872L306.806 251.791L303.496 254.22L303.864 253.999Z" fill="#1B2846" stroke="#586179" stroke-width="3.39394" mask="url(#path-1-inside-1_1103_125)"/>
</svg>
